<?xml version="1.0" encoding="UTF-8" standalone="no"?>
<!-- Created with Inkscape (http://www.inkscape.org/) -->

<svg
   width="210mm"
   height="297mm"
   viewBox="0 0 210 297"
   version="1.1"
   id="svg5"
   xml:space="preserve"
   inkscape:version="1.2.2 (b0a8486541, 2022-12-01)"
   sodipodi:docname="boats1.svg"
   xmlns:inkscape="http://www.inkscape.org/namespaces/inkscape"
   xmlns:sodipodi="http://sodipodi.sourceforge.net/DTD/sodipodi-0.dtd"
   xmlns="http://www.w3.org/2000/svg"
   xmlns:svg="http://www.w3.org/2000/svg"><sodipodi:namedview
     id="namedview7"
     pagecolor="#ffffff"
     bordercolor="#666666"
     borderopacity="1.0"
     inkscape:showpageshadow="2"
     inkscape:pageopacity="0.0"
     inkscape:pagecheckerboard="0"
     inkscape:deskcolor="#d1d1d1"
     inkscape:document-units="mm"
     showgrid="false"
     inkscape:zoom="2"
     inkscape:cx="363.25"
     inkscape:cy="215.25"
     inkscape:window-width="2209"
     inkscape:window-height="1487"
     inkscape:window-x="602"
     inkscape:window-y="168"
     inkscape:window-maximized="0"
     inkscape:current-layer="layer1" /><defs
     id="defs2" /><g
     inkscape:label="Layer 1"
     inkscape:groupmode="layer"
     id="layer1"><path
       style="fill:none;stroke:#000000;stroke-width:0.05;stroke-linecap:butt;stroke-linejoin:miter;stroke-dasharray:none;stroke-opacity:1"
       d="m 14.20099,1.934842 4.333093,10.24426 5.081368,14.989359 1.38506,6.26705 0.97396,13.25715 -0.46477,5.47481 -1.46884,11.578 -2.17172,10.343923 -2.465626,2.83562 -5.421691,0.98087 -5.5523796,-1.03149 -2.424429,-2.83791 -2.225112,-10.046463 -1.261451,-11.5538 -0.44548,-5.28962 1.17081,-13.89903 1.283579,-6.30613 5.185787,-14.821708 z"
       id="path471" /><text
       xml:space="preserve"
       style="font-size:10.5833px;line-height:1.25;font-family:sans-serif;text-align:center;letter-spacing:0px;word-spacing:0px;text-anchor:middle;stroke-width:0.264583"
       x="19.258207"
       y="65.819923"
       id="text1081"><tspan
         sodipodi:role="line"
         id="tspan1079"
         style="stroke-width:0.264583"
         x="19.258207"
         y="65.819923">1</tspan></text><path
       style="fill:none;stroke:#000000;stroke-width:0.05;stroke-linecap:butt;stroke-linejoin:miter;stroke-dasharray:none;stroke-opacity:1"
       d="m 39.360598,1.6202533 4.333093,10.2442607 5.081368,14.989359 1.38506,6.26705 0.97396,13.25715 -0.46477,5.47481 -1.46884,11.578 -2.17172,10.34392 -2.465626,2.83562 -5.421691,0.98087 -5.55238,-1.03149 -2.424429,-2.83791 -2.225112,-10.04646 -1.261451,-11.5538 -0.44548,-5.28962 1.17081,-13.89903 1.283579,-6.30613 5.185787,-14.821708 z"
       id="path471-3" /><text
       xml:space="preserve"
       style="font-style:normal;font-variant:normal;font-weight:normal;font-stretch:normal;font-size:10.5833px;line-height:1.25;font-family:sans-serif;-inkscape-font-specification:'sans-serif, Normal';font-variant-ligatures:normal;font-variant-caps:normal;font-variant-numeric:normal;font-variant-east-asian:normal;text-align:center;letter-spacing:0px;word-spacing:0px;text-anchor:middle;stroke-width:0.264583"
       x="41.531776"
       y="63.072124"
       id="text1081-6"><tspan
         sodipodi:role="line"
         id="tspan1862"
         x="41.531776"
         y="63.072124">2</tspan></text><path
       style="fill:none;stroke:#000000;stroke-width:0.05;stroke-linecap:butt;stroke-linejoin:miter;stroke-dasharray:none;stroke-opacity:1"
       d="m 64.453857,1.8815174 4.333093,10.2442606 5.081368,14.989359 1.38506,6.26705 0.97396,13.25715 -0.46477,5.47481 -1.46884,11.578 -2.17172,10.34392 -2.465626,2.83562 -5.421691,0.98087 -5.55238,-1.03149 -2.424429,-2.83791 -2.225112,-10.04646 -1.261451,-11.5538 -0.44548,-5.28962 1.17081,-13.89903 1.283579,-6.30613 5.185787,-14.821708 z"
       id="path471-3-5" /><text
       xml:space="preserve"
       style="font-style:normal;font-variant:normal;font-weight:normal;font-stretch:normal;font-size:10.5833px;line-height:1.25;font-family:sans-serif;-inkscape-font-specification:'sans-serif, Normal';font-variant-ligatures:normal;font-variant-caps:normal;font-variant-numeric:normal;font-variant-east-asian:normal;text-align:center;letter-spacing:0px;word-spacing:0px;text-anchor:middle;stroke-width:0.264583"
       x="66.625038"
       y="63.333389"
       id="text1081-6-3"><tspan
         sodipodi:role="line"
         id="tspan1896">3</tspan></text><path
       style="fill:none;stroke:#000000;stroke-width:0.05;stroke-linecap:butt;stroke-linejoin:miter;stroke-dasharray:none;stroke-opacity:1"
       d="m 89.259611,1.8837062 4.333093,10.2442608 5.081368,14.989359 1.385058,6.26705 0.97396,13.25715 -0.46477,5.47481 -1.468838,11.578 -2.17172,10.34392 -2.465626,2.83562 -5.421691,0.980874 -5.55238,-1.031494 -2.424429,-2.83791 -2.225112,-10.04646 -1.261451,-11.5538 -0.44548,-5.28962 1.17081,-13.89903 1.283579,-6.30613 5.185787,-14.821708 z"
       id="path471-3-5-6" /><text
       xml:space="preserve"
       style="font-style:normal;font-variant:normal;font-weight:normal;font-stretch:normal;font-size:10.5833px;line-height:1.25;font-family:sans-serif;-inkscape-font-specification:'sans-serif, Normal';font-variant-ligatures:normal;font-variant-caps:normal;font-variant-numeric:normal;font-variant-east-asian:normal;text-align:center;letter-spacing:0px;word-spacing:0px;text-anchor:middle;stroke-width:0.264583"
       x="91.430794"
       y="63.335575"
       id="text1081-6-3-2"><tspan
         sodipodi:role="line"
         id="tspan2126">4</tspan></text><ellipse
       style="font-variation-settings:normal;opacity:1;mix-blend-mode:normal;fill:none;fill-opacity:1;fill-rule:evenodd;stroke:#0008ff;stroke-width:0.05;stroke-linecap:butt;stroke-linejoin:round;stroke-miterlimit:4;stroke-dasharray:none;stroke-dashoffset:0;stroke-opacity:1;stop-color:#000000;stop-opacity:1"
       id="path1982"
       cx="108.94659"
       cy="13.514893"
       rx="6.3593903"
       ry="5.6452665" /><text
       xml:space="preserve"
       style="font-size:10.5833px;line-height:1.25;font-family:sans-serif;text-align:center;letter-spacing:0px;word-spacing:0px;text-anchor:middle;stroke-width:0.264583"
       x="139.15131"
       y="50.218899"
       id="text2021"><tspan
         sodipodi:role="line"
         id="tspan2019"
         style="stroke-width:0.264583"
         x="139.15131"
         y="50.218899">wind</tspan></text><path
       id="path2075-1"
       style="fill:none;stroke:#000000;stroke-width:0.05;stroke-linecap:butt;stroke-linejoin:miter;stroke-opacity:1;stroke-dasharray:none"
       d="m 176.80074,46.542325 -12.97433,-11.43446 0.0818,5.06141 -52.9489,-0.35968 -0.19766,6.8012 m 66.15952,0.06013 -12.97433,11.43446 0.0818,-5.06141 -52.9489,0.35968 -0.19766,-6.8012" /><path
       id="path2075-1-2"
       style="fill:none;stroke:#000000;stroke-width:0.05;stroke-linecap:butt;stroke-linejoin:miter;stroke-opacity:1;stroke-dasharray:none"
       d="m 152.40913,66.489372 -8.99763,-7.929737 0.0567,3.510061 -36.71977,-0.249436 -0.13708,4.716596 m 45.88127,0.0417 -8.99763,7.929737 0.0567,-3.510061 -36.71978,0.249436 -0.13707,-4.716595" /><text
       xml:space="preserve"
       style="font-size:10.5833px;line-height:1.25;font-family:sans-serif;text-align:center;letter-spacing:0px;word-spacing:0px;text-anchor:middle;stroke-width:0.264583"
       x="128.1255"
       y="68.745903"
       id="text2124"><tspan
         sodipodi:role="line"
         id="tspan2122"
         style="font-style:normal;font-variant:normal;font-weight:normal;font-stretch:normal;font-size:7.05556px;font-family:sans-serif;-inkscape-font-specification:'sans-serif, Normal';font-variant-ligatures:normal;font-variant-caps:normal;font-variant-numeric:normal;font-variant-east-asian:normal;stroke-width:0.264583"
         x="128.1255"
         y="68.745903">current</tspan></text></g></svg>
